<svg width="32" height="32" viewBox="0 0 32 32" fill="none" xmlns="http://www.w3.org/2000/svg">
<path fill-rule="evenodd" clip-rule="evenodd" d="M24.2929 3.29289C24.1054 3.10536 23.851 3 23.5858 3H12C11.4477 3 11 3.44772 11 4V20C11 20.5523 11.4477 21 12 21H28C28.5523 21 29 20.5523 29 20V8.41421C29 8.149 28.8946 7.89464 28.7071 7.70711L24.2929 3.29289Z" fill="url(#paint0_linear_110_107)"/>
<path fill-rule="evenodd" clip-rule="evenodd" d="M10 4C10 2.89543 10.8954 2 12 2H23.5858C24.1162 2 24.6249 2.21071 25 2.58579L29.4142 7C29.7893 7.37507 30 7.88378 30 8.41421V20C30 21.1046 29.1046 22 28 22H12C10.8954 22 10 21.1046 10 20V4ZM23.5858 4L12 4V20H28V8.41421L23.5858 4Z" fill="#333333"/>
<path d="M15 4C15 3.44772 15.4477 3 16 3H22C22.5523 3 23 3.44772 23 4V6C23 6.55228 22.5523 7 22 7H16C15.4477 7 15 6.55228 15 6V4Z" fill="#F1F1F1"/>
<path fill-rule="evenodd" clip-rule="evenodd" d="M14 4C14 2.89543 14.8954 2 16 2H22C23.1046 2 24 2.89543 24 4V6C24 7.10457 23.1046 8 22 8H16C14.8954 8 14 7.10457 14 6V4ZM22 4H16V6H22V4Z" fill="#333333"/>
<path d="M15 14C15 13.4477 15.4477 13 16 13H22C22.5523 13 23 13.4477 23 14V20C23 20.5523 22.5523 21 22 21H16C15.4477 21 15 20.5523 15 20V14Z" fill="#F1F1F1"/>
<path fill-rule="evenodd" clip-rule="evenodd" d="M14 14C14 12.8954 14.8954 12 16 12H22C23.1046 12 24 12.8954 24 14V20C24 21.1046 23.1046 22 22 22H16C14.8954 22 14 21.1046 14 20V14ZM22 14H16V20H22V14Z" fill="#333333"/>
<path fill-rule="evenodd" clip-rule="evenodd" d="M22 18H16V16H22V18Z" fill="#333333"/>
<path d="M14.2426 17.4142C13.4615 16.6332 12.1952 16.6332 11.4142 17.4142C10.6331 18.1953 10.6331 19.4616 11.4142 20.2426L20.6065 29.435C21.3876 30.2161 22.6539 30.2161 23.435 29.435C24.216 28.654 24.216 27.3876 23.435 26.6066L14.2426 17.4142Z" fill="black"/>
<path fill-rule="evenodd" clip-rule="evenodd" d="M11.4142 17.4142C12.1952 16.6332 13.4615 16.6332 14.2426 17.4142L23.435 26.6066C24.216 27.3877 24.216 28.654 23.435 29.435C22.6539 30.2161 21.3876 30.2161 20.6065 29.435L11.4142 20.2426C10.6331 19.4616 10.6331 18.1953 11.4142 17.4142Z" fill="#333333"/>
<path d="M19 17C19 21.4183 15.4183 25 11 25C6.58172 25 3 21.4183 3 17C3 12.5817 6.58172 9 11 9C15.4183 9 19 12.5817 19 17Z" fill="url(#paint1_linear_110_107)"/>
<path fill-rule="evenodd" clip-rule="evenodd" d="M11 10C7.13401 10 4 13.134 4 17C4 20.866 7.13401 24 11 24C14.866 24 18 20.866 18 17C18 13.134 14.866 10 11 10ZM2 17C2 12.0294 6.02944 8 11 8C15.9706 8 20 12.0294 20 17C20 21.9706 15.9706 26 11 26C6.02944 26 2 21.9706 2 17Z" fill="#333333"/>
<path fill-rule="evenodd" clip-rule="evenodd" d="M11 13C11 12.4477 10.5478 11.9896 10.0064 12.0987C8.04209 12.4948 6.49477 14.0421 6.09872 16.0064C5.98956 16.5478 6.44771 17 6.99999 17C7.55228 17 7.98368 16.54 8.16437 16.0181C8.46453 15.1511 9.15111 14.4645 10.0181 14.1644C10.54 13.9837 11 13.5523 11 13Z" fill="white"/>
<defs>
<linearGradient id="paint0_linear_110_107" x1="11" y1="3" x2="29" y2="21" gradientUnits="userSpaceOnUse">
<stop stop-color="#C8C8C8"/>
<stop offset="1" stop-color="#AFAFAF"/>
</linearGradient>
<linearGradient id="paint1_linear_110_107" x1="3" y1="9" x2="19" y2="25" gradientUnits="userSpaceOnUse">
<stop stop-color="#F9F9F9"/>
<stop offset="1" stop-color="#ACDCDC"/>
</linearGradient>
</defs>
</svg>
